<svg width="49" height="68" viewBox="0 0 49 68" fill="none" xmlns="http://www.w3.org/2000/svg">
<path d="M47.2869 32.1531L4.30423 1.353C3.95949 1.10361 3.55136 0.9536 3.12531 0.919673C2.69927 0.885746 2.27204 0.969236 1.89125 1.16085C1.51046 1.35245 1.19106 1.64465 0.968654 2.00487C0.746247 2.36509 0.629566 2.77919 0.631618 3.201V64.8013C0.631618 66.678 2.78002 67.7381 4.30423 66.6493L47.2869 35.8492C47.5836 35.6381 47.8253 35.3605 47.992 35.0392C48.1587 34.7179 48.2456 34.3621 48.2456 34.0011C48.2456 33.6402 48.1587 33.2844 47.992 32.9631C47.8253 32.6418 47.5836 32.3642 47.2869 32.1531ZM9.89299 51.3495V16.6528L34.0916 34.0011L9.89299 51.3495Z" fill="white"/>
</svg>
