<svg width="30" height="28" viewBox="0 0 30 28" fill="none" xmlns="http://www.w3.org/2000/svg">
<path d="M28.1518 9.72402L19.7215 8.49883L15.9529 0.858789C15.85 0.649609 15.6807 0.480274 15.4715 0.377344C14.9469 0.118359 14.3094 0.33418 14.0471 0.858789L10.2785 8.49883L1.84826 9.72402C1.61584 9.75723 1.40334 9.8668 1.24064 10.0328C1.04395 10.235 0.935567 10.507 0.939302 10.789C0.943038 11.071 1.05859 11.34 1.26056 11.5369L7.35998 17.4836L5.91896 25.8807C5.88517 26.076 5.90679 26.2769 5.98136 26.4606C6.05593 26.6442 6.18047 26.8033 6.34087 26.9198C6.50126 27.0363 6.69109 27.1056 6.88882 27.1197C7.08656 27.1338 7.28429 27.0922 7.45959 26.9996L15 23.0352L22.5404 26.9996C22.7463 27.1092 22.9854 27.1457 23.2145 27.1059C23.7922 27.0062 24.1807 26.4584 24.0811 25.8807L22.6401 17.4836L28.7395 11.5369C28.9055 11.3742 29.0151 11.1617 29.0483 10.9293C29.1379 10.3482 28.7328 9.81035 28.1518 9.72402Z" fill="#FF9900"/>
</svg>
